# xmcd
#
# Track frame offsets:
#	150
#	9475
#	23993
#	35846
#	49406
#	63111
#	79206
#	92361
#	106835
#	119986
#	135521
#	148633
#	162067
#	175530
#	188615
#	202911
#	215505
#	230702
#
# Disc length: 3220 seconds
#
# Revision: 2
# Processed by: cddbd v1.5.2PL0 Copyright (c) Steve Scherf et al.
# Submitted via: audiograbber 1.83.01
#
DISCID=f20c9212
DTITLE=Various Artist - The Roots of Van Morrisson
DYEAR=2002
DGENRE=Blues
TTITLE0=Leadbelly - Midnight Special
TTITLE1=Barbecue Bob - Motherless Children
TTITLE2=Hank Williams - You Win Again
TTITLE3=Sonny Boy Williamson - Good Morning Little Schoolgirl
TTITLE4=T-Bone Walker - Stormy Monday
TTITLE5=Fisk Jubilee Singers - Old Black Joe
TTITLE6=Leadbelly - Good Morning Blues
TTITLE7=Casey Bill - Outskirts of Town
TTITLE8=Woody Guthrie - Dead or Alive
TTITLE9=John Hurt - Frankie and Johnny
TTITLE10=Leadbelly - Goodnight Irene
TTITLE11=Will Bennett - Railroad Bill
TTITLE12=Jimmy Rodgers - Mulskinner Blues
TTITLE13=Hank Williams - Jambablaya
TTITLE14=John Lee Hooker - Boogie Chillen
TTITLE15=Big Joe Williams - Baby Please Don't Go
TTITLE16=Louis Jordon - Early in the Morning 
TTITLE17=Hank Williams - Why Don't You Love Me
EXTD=
EXTT0=
EXTT1=
EXTT2=
EXTT3=
EXTT4=
EXTT5=
EXTT6=
EXTT7=
EXTT8=
EXTT9=
EXTT10=
EXTT11=
EXTT12=
EXTT13=
EXTT14=
EXTT15=
EXTT16=
EXTT17=
PLAYORDER=
